<?xml version="1.0" encoding="utf-8"?>
<!-- Generator: Adobe Illustrator 16.0.0, SVG Export Plug-In . SVG Version: 6.00 Build 0)  -->
<!DOCTYPE svg PUBLIC "-//W3C//DTD SVG 1.1//EN" "http://www.w3.org/Graphics/SVG/1.1/DTD/svg11.dtd">
<svg version="1.1" id="Layer_1" xmlns="http://www.w3.org/2000/svg" xmlns:xlink="http://www.w3.org/1999/xlink" x="0px" y="0px"
	 width="373.073px" height="302.16px" viewBox="0 0 373.073 302.16" enable-background="new 0 0 373.073 302.16"
	 xml:space="preserve">
<g>
	<path fill-rule="evenodd" clip-rule="evenodd" d="M208.56,0c1.3,0.08,2.599,0.197,3.899,0.234
		c11.023,0.315,22.047,0.63,33.071,0.918c9.708,0.253,19.413,0.355,29.114-0.354c7.562-0.553,14.622,0.996,20.909,5.437
		c11.057,7.808,19.757,17.693,25.602,29.901c2.282,4.768,3.992,9.845,5.582,14.901c2.764,8.79,7.904,15.875,14.738,21.874
		c5.227,4.588,10.502,9.123,15.631,13.818c4.712,4.312,8.813,9.158,11.76,14.886c4.322,8.405,4.924,17.265,3.554,26.485
		c-1.398,9.421-5.803,17.151-12.42,23.776c-4.774,4.78-9.6,9.51-14.376,14.288c-6.75,6.753-11.733,14.653-14.81,23.677
		c-4.329,12.696-12.533,22.5-22.627,30.942c-9.617,8.041-20.233,14.579-31.4,20.169c-11.49,5.752-23.223,11.018-34.753,16.693
		c-9.348,4.601-18.553,9.489-27.818,14.257c-10.05,5.171-20.122,10.289-30.921,13.782c-6.216,2.011-12.619,3.193-19.049,4.188
		c-12.478,1.932-24.84,4.419-37.179,7.085c-12.901,2.789-25.944,4.681-39.173,5.011c-0.259,0.007-0.516,0.126-0.774,0.192
		c-2.4,0-4.8,0-7.2,0c-0.338-0.066-0.674-0.184-1.014-0.192c-7.816-0.218-15.548-1.111-23.095-3.193
		c-12.505-3.45-23.684-9.323-32.844-18.654c-4.178-4.256-6.94-9.301-7.934-15.282c-1.264-7.605-1.157-15.237-0.264-22.826
		c1.345-11.425,3.048-22.807,4.563-34.212c1.385-10.424,2.53-20.862,2.078-31.413c-0.35-8.176-1.686-16.145-5.079-23.634
		c-2.338-5.16-4.919-10.212-7.472-15.273c-3.206-6.356-6.271-12.764-7.768-19.782c-0.447-2.095-0.732-4.225-1.092-6.338
		c0-2.32,0-4.64,0-6.96c0.081-0.376,0.202-0.75,0.238-1.13C1,95.187,3.722,87.94,9.491,82.067c3.134-3.19,6.411-6.241,9.64-9.337
		c4.793-4.595,8.774-9.724,10.748-16.188c1.597-5.228,1.96-10.58,1.563-16c-0.055-0.752,0.175-1.245,0.732-1.753
		c5.365-4.891,11.17-9.181,17.405-12.893c12.889-7.675,26.85-12.597,41.371-16.059c15.229-3.631,30.697-5.762,46.284-6.95
		c13.86-1.057,27.746-1.77,41.621-2.634c1.341-0.083,2.683-0.168,4.024-0.252C191.439,0,200,0,208.56,0z M330.904,77.43
		c-1.825-2.863-3.758-5.43-5.201-8.249c-3.781-7.389-7.389-14.87-10.992-22.349c-3.682-7.64-7.501-15.188-12.795-21.883
		c-7.163-9.062-16.254-14.784-27.887-16.027c-12.29-1.313-24.632-1.89-36.981-1.875c-11.549,0.014-23.103,0.275-34.646,0.693
		c-9.74,0.352-19.473,1.013-29.2,1.671c-8.532,0.578-17.055,1.31-25.577,2.031c-8.402,0.711-16.799,1.49-25.198,2.25
		c-3.548,0.321-7.094,0.67-10.641,1.007c0.288,0.24,0.581,0.349,0.882,0.416c5.874,1.302,11.829,1.909,17.835,2.039
		c8.853,0.192,17.649-0.583,26.428-1.621c11.546-1.364,23.08-2.853,34.642-4.064c8.283-0.867,16.608-0.823,24.897,0.105
		c11.969,1.341,23.214,5.049,33.87,10.609c13.724,7.161,25.562,16.917,37.151,27.013c0.136,0.118,0.172,0.351,0.377,0.797
		c-0.611-0.318-0.965-0.477-1.292-0.677c-2.319-1.414-4.673-2.777-6.942-4.267c-8.018-5.263-15.938-10.676-24.024-15.829
		c-7.667-4.886-15.807-8.86-24.475-11.703c-13.483-4.422-27.329-4.933-41.264-3.458c-8.93,0.945-17.795,2.521-26.681,3.869
		c-9.658,1.465-19.345,2.583-29.129,1.933c-9.489-0.631-18.962-1.482-28.447-2.162c-5.919-0.424-11.83-0.28-17.668,0.916
		c-9.066,1.857-17.585,5.231-25.756,9.509c-7.076,3.704-13.782,7.955-19.309,13.823c-2.749,2.918-5.051,6.134-5.544,10.261
		c-0.217,1.819-0.318,3.674-0.232,5.502c0.292,6.248-1.729,11.701-5.481,16.588c-1.094,1.426-2.202,2.853-3.417,4.174
		c-3.41,3.707-6.941,7.302-10.308,11.046c-3.698,4.113-6.631,8.705-8.059,14.131c-1.875,7.125-0.933,14.107,1.081,21.033
		c1.439,4.95,4.365,9.045,7.581,12.939c3.424,4.146,6.113,8.645,7.676,13.832c2.538,8.427,3.326,17.074,3.451,25.809
		c0.14,9.765-0.463,19.501-1.547,29.198c-1.145,10.241-2.457,20.464-3.749,30.688c-0.938,7.424-1.759,14.84-1.066,22.345
		c0.752,8.136,3.966,14.977,10.322,20.248c4.083,3.386,8.713,5.768,13.674,7.539c11.248,4.016,22.949,5.174,34.784,5.386
		c10.209,0.183,20.375-0.509,30.495-1.829c9.116-1.189,18.202-2.645,27.019-5.284c6.495-1.944,12.842-4.379,19.281-6.516
		c5.36-1.778,10.768-3.379,16.54-2.5c7.287,1.11,14.08-0.421,20.424-4.003c6.364-3.593,12.521-7.574,19.007-10.922
		c9.716-5.014,19.585-9.741,29.489-14.375c13.129-6.143,26.371-12.051,38.935-19.322c10.273-5.947,20.021-12.605,28.252-21.276
		c5.718-6.023,10.26-12.727,12.575-20.819c1.13-3.95,2.514-7.826,3.767-11.741c1.035-3.237,2.914-5.815,5.749-7.73
		c0.983-0.664,1.923-1.466,2.679-2.375c0.623-0.748,0.945-1.747,1.449-2.73c-1.125,0.313-1.95,0.706-2.776,0.711
		c-0.483,0.002-0.97-0.615-1.454-0.955c0.316-0.327,0.574-0.779,0.96-0.965c7.317-3.537,13.814-8.198,19.239-14.26
		c9.632-10.765,12.629-23.224,8.659-37.083c-2.899-10.127-9.634-17.449-18.527-22.816c-9.938-5.997-20.837-8.28-32.348-8.019
		c-0.313,0.007-0.629-0.053-0.943-0.082c-0.012-0.138-0.023-0.276-0.036-0.415c1.306-0.267,2.611-0.756,3.917-0.757
		c3.506-0.004,7.014,0.168,10.517,0.335C326.885,77.033,328.848,77.256,330.904,77.43z"/>
	<path fill-rule="evenodd" clip-rule="evenodd" fill="#FFFFFF" d="M330.904,77.43c-2.057-0.173-4.02-0.397-5.989-0.491
		c-3.503-0.167-7.011-0.339-10.517-0.335c-1.306,0.001-2.611,0.491-3.917,0.757c0.013,0.139,0.024,0.277,0.036,0.415
		c0.314,0.029,0.63,0.089,0.943,0.082c11.511-0.261,22.409,2.022,32.348,8.019c8.894,5.367,15.628,12.689,18.527,22.816
		c3.97,13.86,0.973,26.318-8.659,37.083c-5.425,6.062-11.922,10.723-19.239,14.26c-0.386,0.186-0.644,0.638-0.96,0.965
		c0.484,0.34,0.971,0.957,1.454,0.955c0.826-0.005,1.651-0.397,2.776-0.711c-0.504,0.983-0.826,1.982-1.449,2.73
		c-0.756,0.909-1.695,1.711-2.679,2.375c-2.835,1.915-4.714,4.493-5.749,7.73c-1.253,3.915-2.637,7.791-3.767,11.741
		c-2.315,8.093-6.857,14.796-12.575,20.819c-8.231,8.671-17.979,15.329-28.252,21.276c-12.563,7.271-25.806,13.18-38.935,19.322
		c-9.904,4.634-19.773,9.361-29.489,14.375c-6.486,3.348-12.643,7.329-19.007,10.922c-6.344,3.582-13.137,5.113-20.424,4.003
		c-5.772-0.879-11.18,0.722-16.54,2.5c-6.439,2.137-12.786,4.571-19.281,6.516c-8.817,2.64-17.903,4.095-27.019,5.284
		c-10.12,1.32-20.286,2.012-30.495,1.829c-11.834-0.212-23.536-1.37-34.784-5.386c-4.96-1.771-9.591-4.153-13.674-7.539
		c-6.355-5.271-9.57-12.112-10.322-20.248c-0.693-7.505,0.127-14.921,1.066-22.345c1.292-10.225,2.604-20.447,3.749-30.688
		c1.084-9.697,1.687-19.434,1.547-29.198c-0.125-8.734-0.913-17.382-3.451-25.809c-1.563-5.188-4.252-9.687-7.676-13.832
		c-3.216-3.895-6.142-7.989-7.581-12.939c-2.013-6.926-2.956-13.909-1.081-21.033c1.428-5.426,4.361-10.018,8.059-14.131
		c3.367-3.744,6.898-7.34,10.308-11.046c1.216-1.321,2.323-2.748,3.417-4.174c3.752-4.888,5.772-10.341,5.481-16.588
		c-0.085-1.828,0.015-3.683,0.232-5.502c0.493-4.127,2.795-7.343,5.544-10.261c5.527-5.868,12.233-10.119,19.309-13.823
		c8.171-4.277,16.69-7.651,25.756-9.509c5.838-1.196,11.749-1.34,17.668-0.916c9.485,0.68,18.958,1.531,28.447,2.162
		c9.784,0.65,19.471-0.467,29.129-1.933c8.886-1.348,17.751-2.924,26.681-3.869c13.935-1.475,27.78-0.964,41.264,3.458
		c8.668,2.842,16.808,6.817,24.475,11.703c8.087,5.153,16.007,10.566,24.024,15.829c2.27,1.49,4.623,2.853,6.942,4.267
		c0.327,0.2,0.681,0.358,1.292,0.677c-0.205-0.446-0.241-0.679-0.377-0.797c-11.59-10.096-23.428-19.852-37.151-27.013
		c-10.656-5.56-21.901-9.268-33.87-10.609c-8.289-0.928-16.614-0.973-24.897-0.105c-11.562,1.211-23.096,2.7-34.642,4.064
		c-8.779,1.037-17.575,1.813-26.428,1.621c-6.006-0.13-11.962-0.737-17.835-2.039c-0.302-0.067-0.594-0.176-0.882-0.416
		c3.547-0.337,7.093-0.687,10.641-1.007c8.398-0.76,16.795-1.539,25.198-2.25c8.522-0.721,17.045-1.453,25.577-2.031
		c9.728-0.658,19.46-1.319,29.2-1.671c11.543-0.418,23.097-0.679,34.646-0.693c12.35-0.015,24.691,0.562,36.981,1.875
		c11.633,1.243,20.724,6.966,27.887,16.027c5.294,6.696,9.113,14.243,12.795,21.883c3.604,7.479,7.211,14.959,10.992,22.349
		C327.146,72,329.079,74.567,330.904,77.43z M134.777,236.323c3.042-0.074,8.918-0.164,14.79-0.373
		c15.645-0.555,31.153-2.293,46.473-5.562c15.93-3.4,31.294-8.428,45.713-16.106c13.145-7,24.858-15.839,34.506-27.263
		c5.457-6.462,9.881-13.658,14.504-20.71c4.935-7.526,9.866-15.056,16.623-21.157c0.249-0.225,0.338-0.86,0.227-1.218
		c-1.64-5.252-0.126-9.667,3.556-13.493c0.288-0.3,0.927-0.464,1.354-0.394c1.89,0.308,3.764,0.719,5.641,1.103
		c2.53,0.517,5.054,0.714,7.6,0.057c0.912-0.235,1.236-0.561,0.929-1.574c-0.723-2.378-2.189-4.187-4.171-5.544
		c-1.974-1.352-4.098-2.48-6.117-3.767c-2.187-1.393-4.423-2.734-6.466-4.319c-2.589-2.008-4.191-4.676-4.458-8.044
		c-0.06-0.75-0.26-1.496-0.455-2.228c-0.496-1.85-1.656-3.129-3.376-3.976c-0.836-0.411-1.511-0.341-1.951,0.433
		c-0.605,1.062-1.25,2.149-1.583,3.31c-0.561,1.953-0.839,3.985-1.351,5.954c-0.125,0.479-0.614,1.042-1.072,1.228
		c-13.137,5.303-26.34,10.446-39.432,15.858c-16.863,6.97-33.716,13.947-51.142,19.428c-15.31,4.816-30.872,8.503-46.829,10.373
		c-13.098,1.534-26.218,1.772-39.369,0.61c-12.219-1.08-24.071-3.67-35.454-8.27c-5.803-2.345-11.348-5.181-16.042-9.418
		c-3.086-2.785-5.612-5.97-6.117-10.273c-0.232-1.977-0.113-3.992-0.238-5.985c-0.149-2.387-0.251-4.79-0.628-7.146
		c-0.341-2.128-1.517-3.843-3.487-4.91c-1.424-0.771-2.333-0.566-2.991,0.938c-0.406,0.927-0.697,1.998-0.683,3
		c0.053,3.697-1.022,6.89-2.936,10.125c-4.559,7.706-6.534,16.338-7.854,25.112c-1.403,9.327-1.659,18.704-0.944,28.101
		c0.656,8.636,2.235,17.083,5.001,25.324c4.096,12.209,12.005,20.333,24.476,24.044c7.5,2.231,15.121,3.712,22.867,4.602
		C106.531,235.641,119.229,236.126,134.777,236.323z M111.544,134.978c0.289,0.341,0.546,0.636,0.793,0.938
		c3.906,4.769,7.868,9.51,12.79,13.268c2.294,1.751,4.816,3.333,7.459,4.47c4.729,2.032,8.742,0.66,11.487-3.688
		c1.055-1.67,1.703-3.595,2.557-5.394c0.408-0.86,0.093-1.255-0.744-1.595c-2.084-0.847-3.876-0.243-5.672,0.842
		c-1.459,0.881-2.979,1.675-4.531,2.381c-0.414,0.188-1.131,0.069-1.556-0.174c-6.994-4.012-12.343-9.544-15.654-16.977
		c-0.477-1.071-0.38-1.803,0.349-2.682c2.208-2.66,4.998-4.569,7.876-6.396c2.764-1.754,5.475-3.591,8.218-5.377
		c0.741-0.482,0.993-1.097,0.985-2c-0.044-5.6-0.005-11.2-0.042-16.799c-0.005-0.798,0.227-1.284,0.961-1.569
		c1.375-0.534,2.755-1.061,4.106-1.649c1.679-0.731,3.406-1.393,4.974-2.32c1.778-1.052,2.755-2.777,2.879-4.856
		c0.027-0.463-0.34-1.146-0.737-1.402c-1.523-0.985-3.273-1.346-5.052-1.087c-2.128,0.31-4.223,0.849-6.345,1.208
		c-0.411,0.07-1.061-0.083-1.3-0.376c-2.146-2.643-4.735-4.759-7.622-6.515c-8.682-5.281-18.17-7.97-28.264-8.567
		c-5.183-0.307-10.311,0.137-15.245,1.906c-5.532,1.984-9.824,5.386-12.357,10.834c-0.526,1.133-0.312,1.662,0.801,2.046
		c1.13,0.392,2.217,0.913,3.354,1.286c6.167,2.024,12.586,2.518,18.992,3.117c6.244,0.584,12.494,1.137,18.711,1.94
		c4.495,0.581,8.815,1.899,12.73,4.317c0.676,0.417,0.985,0.876,0.974,1.722c-0.052,3.919-0.001,7.839-0.054,11.758
		c-0.006,0.461-0.307,1.075-0.672,1.351c-6.411,4.841-12.888,9.597-19.281,14.461c-8.346,6.35-16.851,12.435-26.443,16.82
		c-0.184,0.083-0.318,0.275-0.492,0.43c0.138,0.109,0.192,0.187,0.255,0.194c0.197,0.026,0.397,0.032,0.596,0.034
		c3.229,0.041,6.26-0.75,9.074-2.299c1.958-1.078,3.813-2.346,5.783-3.402c1.664-0.891,3.425-1.6,5.101-2.37
		c1.201,2.06,2.609,3.729,2.139,6.134c0.841-0.043,1.475-0.047,2.102-0.114C108.13,138.551,109.438,136.2,111.544,134.978z
		 M224.393,59.291c-11.348,0.192-22.345,2.441-32.791,7.177c-5.056,2.292-9.79,5.095-13.532,9.302
		c-4.652,5.229-4.801,10.729-0.416,15.714c2.36,2.683,5.346,4.547,8.495,6.151c0.343,0.174,0.93,0.07,1.326-0.093
		c2.066-0.852,4.102-1.777,6.158-2.653c10.979-4.67,22.119-8.8,34.105-10.041c6.808-0.704,13.557-0.562,20.192,1.398
		c2.792,0.825,5.607,1.621,8.462,2.173c3.523,0.682,6.934,0.337,9.868-2.066c1.759-1.44,1.8-1.522,1.092-3.722
		c-0.196-0.607-0.406-1.212-0.647-1.803c-2.939-7.212-8.289-12.119-15.073-15.596C243.115,60.868,233.935,59.466,224.393,59.291z
		 M225.469,88.171c-0.042,0.644-0.075,0.84-0.064,1.033c0.285,5.476,2.413,10.051,6.706,13.53c4.715,3.82,10.296,5.529,16.164,6.459
		c7.981,1.265,15.943,0.884,23.866-0.513c8.194-1.444,15.988-3.886,22.531-9.347c0.823-0.687,1.754-1.276,2.711-1.76
		c1.204-0.607,2.442-1.303,3.742-1.538c7.847-1.417,15.259-0.253,21.78,4.523c6.899,5.053,10.239,11.985,9.456,20.546
		c-0.274,3.007-1.489,5.929-2.277,8.89c-0.635,2.383-1.436,4.737-1.861,7.157c-0.408,2.32,0.263,4.559,1.341,6.816
		c0.372-0.337,0.679-0.534,0.877-0.81c2.116-2.947,4.516-5.74,6.267-8.892c6.797-12.241,4.833-25.809-5.138-35.603
		c-8.067-7.924-18.074-10.998-29.173-10.919c-8.98,0.063-17.171,2.843-24.866,7.361c-3.024,1.776-6.153,3.413-9.355,4.84
		c-5.815,2.591-11.885,3.384-18.138,1.799c-4.122-1.045-7.49-3.48-10.867-5.934c-2.836-2.062-5.737-4.056-8.746-5.851
		C229.003,89.11,227.262,88.796,225.469,88.171z M41.612,238.438c-0.112,0.21-0.255,0.368-0.283,0.544
		c-0.638,3.992-0.406,7.889,1.372,11.594c2.575,5.367,7.067,8.684,12.24,11.172c7.816,3.762,16.198,5.373,24.767,6.056
		c9.209,0.733,18.445,1.064,27.674,0.604c9.295-0.464,18.597-0.986,27.859-1.874c12.57-1.204,25.021-3.308,37.393-5.859
		c27.254-5.624,53.778-13.608,79.358-24.615c12.786-5.502,25.187-11.755,36.777-19.519c0.373-0.25,0.717-0.542,1.074-0.814
		c-0.047-0.094-0.095-0.188-0.142-0.281c-0.369,0.083-0.747,0.138-1.106,0.252c-2.698,0.862-5.415,1.673-8.085,2.615
		c-11.503,4.061-22.54,9.221-33.43,14.655c-25.165,12.56-51.772,20.663-79.229,26.259c-13.911,2.835-27.92,4.964-42.082,6.055
		c-9.135,0.703-18.277,0.917-27.43,0.509c-9.723-0.434-19.341-1.645-28.756-4.199c-9.256-2.511-17.937-6.238-25.588-12.151
		c-0.924-0.714-1.341-1.458-1.254-2.62c0.144-1.911,0.218-3.83,0.235-5.747C42.986,240.028,42.772,239.006,41.612,238.438z
		 M279.625,57.888c0.084-0.08,0.168-0.161,0.252-0.241c-0.192-0.273-0.356-0.573-0.582-0.816c-1.716-1.843-3.342-3.785-5.184-5.493
		c-18.674-17.321-41.032-26.243-66.137-28.75c-10.443-1.042-20.844-0.105-31.204,1.248c-12.122,1.582-24.214,3.408-36.356,4.795
		c-5.659,0.646-11.408,0.705-17.114,0.672c-7.177-0.041-14.184-1.703-21.247-2.794c-5.609-0.866-11.225-1.765-16.933-1.068
		c-4.636,0.566-8.64,2.273-11.269,6.387c-0.171,0.268-0.28,0.575-0.526,1.09c0.429-0.149,0.587-0.171,0.708-0.251
		c5.19-3.425,11.03-4.464,17.064-4.164c5.536,0.276,11.068,0.897,16.565,1.644c9.207,1.251,18.418,2.147,27.723,1.75
		c10.446-0.447,20.713-2.261,31.009-3.914c7.331-1.176,14.691-2.431,22.085-2.892c14.504-0.905,28.686,1.288,42.507,5.782
		c15.429,5.017,29.375,12.841,42.421,22.374C275.496,54.771,277.553,56.339,279.625,57.888z M68.681,117.862
		c2.849,0,5.802,0.071,8.749-0.018c4.043-0.121,8.057-0.529,11.83-2.152c4.556-1.959,6.283-5.701,4.796-10.441
		c-0.115-0.368-0.633-0.806-1.014-0.861c-2.326-0.337-4.424,0.304-6.292,1.712c-1.052,0.793-2.06,1.653-3.157,2.377
		c-1.603,1.058-1.627,1.015-3.04-0.218c-0.361-0.315-0.728-0.627-1.118-0.905c-8.484-6.061-17.928-9.375-28.357-9.644
		c-4.421-0.114-8.678,0.757-12.332,3.502c-2.854,2.145-4.535,5.03-5.359,8.61c0.5,0,0.854,0.043,1.194-0.007
		c2.764-0.406,5.542-0.742,8.283-1.266c5.103-0.975,10.189-1.851,15.423-1.939c3.238-0.054,5.382,1.313,7.115,3.763
		c0.391,0.552,0.792,1.121,1.047,1.741C67.207,113.954,67.895,115.822,68.681,117.862z M203.014,128.237
		c0-0.998-0.062-2.001,0.016-2.993c0.11-1.434-0.532-2.442-1.606-3.268c-4.861-3.74-10.316-5.693-16.486-5.314
		c-3.67,0.225-6.334,2.37-7.26,5.619c-0.429,1.504-0.426,1.698,1.067,2.001c2.533,0.514,5.103,0.849,7.661,1.235
		c1.889,0.286,3.826,0.365,5.666,0.833c3.537,0.9,4.899,5.78,2.028,8.212c-1.036,0.877-2.049,1.782-3.049,2.7
		c-1.967,1.804-2.989,3.983-2.725,6.718c0.067,0.695,0.377,0.954,0.969,1.141c5.607,1.76,9.997-0.334,12.122-5.819
		C202.797,135.739,203.085,132.009,203.014,128.237z M67.687,81.87c0.023-0.14,0.046-0.279,0.069-0.419
		c-0.478-0.108-0.952-0.252-1.436-0.318c-2.769-0.379-5.531-0.862-8.313-1.084C49.923,79.4,41.952,79.985,34.269,82.8
		c-8.578,3.143-15.213,8.521-19.049,16.984c-2.635,5.814-3.334,11.979-2.962,18.276c0.391,6.618,2.648,12.461,7.56,17.103
		c4.951,4.678,11.04,7.057,17.521,8.634c0.14,0.034,0.302-0.019,0.478-0.034c0-0.165,0.03-0.29-0.006-0.393
		c-0.09-0.263-0.21-0.516-0.318-0.774c-1.413-3.383-4.117-5.308-7.43-6.506c-2.101-0.76-4.243-1.406-6.347-2.156
		c-3.292-1.174-5.883-3.224-6.893-6.648c-0.83-2.814-1.477-5.726-1.787-8.639c-0.569-5.351-0.022-10.618,2.262-15.588
		c3.335-7.255,9.063-12.066,16.08-15.466c9.675-4.689,20.008-6.139,30.645-5.936C65.244,81.681,66.465,81.797,67.687,81.87z
		 M152.522,253.473c-0.009,0.097-0.018,0.193-0.028,0.29c0.351,0.061,0.701,0.163,1.054,0.174c3.351,0.097,6.703,0.248,10.054,0.249
		c6.977,0.001,13.86-0.906,20.681-2.326c12.706-2.645,24.715-7.278,36.323-12.962c10-4.896,19.857-10.084,29.836-15.025
		c3.241-1.604,6.642-2.903,10.019-4.217c1.89-0.735,3.898-1.163,5.814-1.839c0.595-0.21,1.104-0.741,1.565-1.211
		c0.154-0.158,0.147-0.66,0.009-0.863c-0.117-0.171-0.545-0.214-0.815-0.175c-0.429,0.061-0.841,0.24-1.263,0.364
		c-12.108,3.546-23.578,8.681-34.944,14.069c-11.828,5.607-23.596,11.349-36.013,15.6c-11.426,3.911-23.125,6.491-35.179,7.395
		C157.266,253.173,154.893,253.314,152.522,253.473z M183.935,142.127c0.353-1.097,0.803-1.93,0.859-2.79
		c0.122-1.867-0.015-3.75,0.069-5.622c0.043-0.974-0.223-1.466-1.225-1.617c-3.666-0.553-7.308-1.326-10.992-1.686
		c-3.627-0.354-7.269-0.089-10.731,1.283c-2.816,1.116-4.746,3.023-5.404,6.072c-0.165,0.762,0.025,1.227,0.837,1.378
		c0.862,0.161,1.717,0.503,2.577,0.51c4.265,0.034,8.533,0.04,12.797-0.054C176.545,139.519,180.336,139.441,183.935,142.127z
		 M266.649,60.81c0.062-0.046,0.123-0.092,0.185-0.137c-0.035-0.137-0.038-0.294-0.11-0.407c-1.176-1.852-2.228-3.801-3.566-5.528
		c-5.307-6.847-12.423-11.159-20.402-14.172c-11.556-4.364-23.634-5.793-35.868-5.907c-6.861-0.064-13.729,0.459-20.591,0.772
		c-0.487,0.022-0.954,0.49-1.43,0.75c0.487,0.246,0.972,0.495,1.462,0.732c0.065,0.031,0.158,0.003,0.238,0.004
		c7.667,0.093,15.342-0.023,22.997,0.332c10.005,0.463,19.856,2.079,29.396,5.244c10.588,3.513,19.959,8.914,27.07,17.748
		C266.202,60.457,266.44,60.621,266.649,60.81z M134.769,45.865c0.089-0.108,0.178-0.217,0.267-0.325
		c-0.743-0.841-1.398-1.787-2.246-2.503c-2.165-1.83-4.804-2.7-7.528-3.201c-10.475-1.929-20.973-2.089-31.46-0.105
		c-5.684,1.075-11.175,2.759-16.082,5.937c-3.431,2.222-6.28,4.973-7.265,9.15c-0.388,1.648-0.513,3.315,0.104,5.015
		c0.179-0.13,0.266-0.163,0.299-0.224c0.074-0.139,0.134-0.288,0.178-0.439c1.599-5.425,5.044-9.357,9.871-12.152
		c5.803-3.361,12.196-4.692,18.775-5.207c11.6-0.907,22.963,0.49,34.102,3.807C134.107,45.713,134.44,45.783,134.769,45.865z
		 M60.711,235.432c-0.091,0.051-0.182,0.102-0.273,0.152c0.06,0.346,0.101,0.696,0.181,1.038c1.261,5.339,4.368,9.343,8.941,12.26
		c4.561,2.909,9.648,4.371,14.917,5.275c8.884,1.524,17.824,1.412,26.776,0.822c0.513-0.034,1.022-0.126,1.533-0.19
		c-0.23-0.317-0.443-0.389-0.66-0.408c-2.626-0.237-5.257-0.433-7.88-0.705c-7.839-0.814-15.601-2.043-23.103-4.562
		c-6.908-2.318-13.224-5.625-18.217-11.092C62.161,237.184,61.448,236.296,60.711,235.432z M328.541,152.554
		c0.01,0.077,0.019,0.154,0.028,0.23c0.249,0.032,0.497,0.092,0.746,0.091c3.984-0.018,7.649-1.139,10.972-3.312
		c2.742-1.793,5.438-3.656,8.122-5.534c0.294-0.206,0.475-0.697,0.539-1.084c0.321-1.93,0.582-3.871,0.87-5.807
		c0.943-6.357,2.064-12.694,2.781-19.077c0.632-5.626-0.187-11.163-2.278-16.466c-0.154-0.39-0.409-0.739-0.617-1.107
		c-0.207,0.392-0.241,0.672-0.202,0.941c0.87,5.986,1.235,11.996,0.937,18.042c-0.304,6.144-1.248,12.163-3.676,17.86
		c-3.338,7.833-8.812,13.221-17.419,14.937C329.068,152.322,328.809,152.457,328.541,152.554z M163.737,242.83
		c0.005-0.106,0.01-0.214,0.014-0.32c-0.288-0.051-0.574-0.124-0.864-0.149c-8.977-0.78-17.958-0.311-26.941-0.135
		c-7.426,0.145-14.853,0.21-22.28,0.291c-1.237,0.013-2.489-0.203-3.705-0.059c-0.589,0.069-1.11,0.727-1.662,1.117
		c0.492,0.208,0.974,0.564,1.477,0.596c1.142,0.072,2.316-0.173,3.438-0.01c6.392,0.93,12.823,1.104,19.248,0.784
		c8.173-0.405,16.334-1.067,24.5-1.624C159.22,243.167,161.479,242.994,163.737,242.83z M349.615,99.827
		c0.117-0.125,0.212-0.18,0.211-0.232c-0.006-0.196-0.03-0.394-0.068-0.587c-0.476-2.384-1.416-4.571-2.82-6.551
		c-3.214-4.532-7.757-7.187-12.893-8.906c-8.608-2.881-17.401-3.097-26.286-1.584c-0.743,0.126-1.475,0.324-2.212,0.488
		c0.016,0.11,0.031,0.22,0.047,0.329c0.57,0,1.142,0.031,1.709-0.005c7.012-0.443,13.979-0.218,20.843,1.434
		c9.057,2.179,16.438,6.707,21.049,15.095C349.298,99.495,349.467,99.646,349.615,99.827z M40.028,90.805
		c-0.115-0.111-0.231-0.223-0.346-0.334c-0.147,0.034-0.308,0.039-0.438,0.104c-4.427,2.212-8.858,4.416-13.259,6.678
		c-0.284,0.146-0.449,0.75-0.465,1.149c-0.05,1.191,0.125,2.402-0.011,3.579c-0.326,2.814-0.835,5.607-1.166,8.421
		c-0.266,2.269-0.39,4.57,0.774,6.673c0.372,0.673,0.946,1.234,1.428,1.846c0.109-0.072,0.219-0.145,0.329-0.217
		c-0.112-0.494-0.218-0.989-0.338-1.48c-1.67-6.823-0.532-12.939,4.652-17.964c1.833-1.777,3.857-3.357,5.722-5.104
		C38.021,93.116,38.994,91.927,40.028,90.805z M235.874,128.675c-0.614-1.677-1.787-2.756-3.378-3.421
		c-2.193-0.916-4.506-0.994-6.83-0.847c-4.06,0.256-8.114,0.688-12.177,0.783c-2.635,0.062-5.186-0.561-6.836-2.986
		c-0.573-0.844-1.018-1.662,0.219-2.366c0.297-0.169,0.64-0.49,0.695-0.79c0.084-0.455,0.114-1.146-0.151-1.393
		c-0.578-0.538-1.837-0.293-2.088,0.242c-1.777,3.783,0.111,8.061,4.218,8.737c3.156,0.52,6.426,0.396,9.646,0.464
		c3.862,0.081,7.735-0.077,11.587,0.151C232.457,127.349,234.094,128.154,235.874,128.675z M271.234,77.621
		c3.286,2.821,7.538,2.594,11.151,4.238c-0.76,0.992-1.671,0.659-2.496,0.633c-1.114-0.035-2.233-0.197-3.337-0.119
		c-0.379,0.027-0.762,0.583-1.037,0.971c-0.059,0.083,0.287,0.635,0.537,0.728c3.612,1.333,7.188,1.392,10.621-0.551
		c1.496-0.847,2.194-2.221,2.209-3.954c-1.624-0.099-3.203-0.017-4.702-0.323c-2.81-0.574-5.561-1.425-8.359-2.055
		C274.363,76.861,272.855,76.76,271.234,77.621z M123.337,51.718c4.161,2.073,5.505,5.799,5.927,9.882
		c0.326,3.159,0.176,6.367,0.226,9.554c0.009,0.528-0.043,1.057-0.067,1.585c0.167,0.056,0.335,0.112,0.504,0.168
		c0.527-1.102,1.234-2.153,1.55-3.312c1.337-4.917,1.082-9.811-0.773-14.55c-0.476-1.217-1.347-2.367-2.287-3.293
		C127.043,50.398,125.072,50.446,123.337,51.718z M180.883,59.988c0.037-4.188,0.73-7.948,2.507-11.46
		c1.786-3.532,4.517-6.281,7.63-8.9c-3.392-0.597-8.011,2.502-10.241,6.585C178.096,51.124,178.781,57.644,180.883,59.988z
		 M36.853,129.596c-5.093-2.186-8.071-6.868-12.283-10.326c-0.364,4.282,3.193,9.584,7.056,10.871
		C33.406,130.733,35.132,130.646,36.853,129.596z M127.432,254.472c0.033,0.111,0.066,0.223,0.099,0.335
		c1.609,0,3.218-0.009,4.827,0.002c3.03,0.02,6.061,0.106,9.089,0.048c1.188-0.022,2.401-0.281,3.505-1.287
		c-0.344-0.071-0.482-0.121-0.621-0.125c-2.99-0.071-5.98-0.207-8.969-0.179c-2.026,0.019-4.056,0.22-6.072,0.448
		C128.651,253.786,128.051,254.209,127.432,254.472z M277.883,88.618c-1.105-0.64-2.096-1.319-3.175-1.8
		c-0.655-0.292-1.468-0.441-2.174-0.356c-0.901,0.109-1.312,1.178-0.71,1.596c0.977,0.677,1.982,1.363,3.072,1.815
		C276.268,90.442,277.138,90.003,277.883,88.618z"/>
	<path fill-rule="evenodd" clip-rule="evenodd" d="M134.777,236.323c-15.548-0.197-28.246-0.683-40.886-2.133
		c-7.747-0.89-15.367-2.37-22.867-4.602c-12.471-3.711-20.38-11.835-24.476-24.044c-2.766-8.241-4.345-16.688-5.001-25.324
		c-0.715-9.396-0.459-18.773,0.944-28.101c1.32-8.774,3.295-17.406,7.854-25.112c1.914-3.234,2.988-6.428,2.936-10.125
		c-0.015-1.001,0.276-2.072,0.683-3c0.658-1.504,1.566-1.708,2.991-0.938c1.97,1.067,3.146,2.782,3.487,4.91
		c0.377,2.355,0.479,4.759,0.628,7.146c0.125,1.993,0.006,4.009,0.238,5.985c0.505,4.303,3.031,7.488,6.117,10.273
		c4.695,4.238,10.239,7.074,16.042,9.418c11.382,4.6,23.235,7.189,35.454,8.27c13.151,1.162,26.271,0.924,39.369-0.61
		c15.958-1.87,31.52-5.557,46.829-10.373c17.426-5.481,34.278-12.458,51.142-19.428c13.092-5.412,26.295-10.555,39.432-15.858
		c0.458-0.185,0.947-0.749,1.072-1.228c0.512-1.969,0.79-4.001,1.351-5.954c0.333-1.161,0.978-2.248,1.583-3.31
		c0.44-0.774,1.115-0.844,1.951-0.433c1.72,0.846,2.88,2.125,3.376,3.976c0.195,0.731,0.396,1.477,0.455,2.228
		c0.267,3.368,1.869,6.036,4.458,8.044c2.043,1.585,4.279,2.926,6.466,4.319c2.02,1.287,4.144,2.415,6.117,3.767
		c1.981,1.357,3.448,3.166,4.171,5.544c0.308,1.013-0.017,1.339-0.929,1.574c-2.546,0.657-5.069,0.46-7.6-0.057
		c-1.877-0.384-3.751-0.795-5.641-1.103c-0.428-0.07-1.066,0.094-1.354,0.394c-3.682,3.826-5.195,8.241-3.556,13.493
		c0.111,0.358,0.022,0.993-0.227,1.218c-6.757,6.102-11.688,13.631-16.623,21.157c-4.623,7.052-9.047,14.248-14.504,20.71
		c-9.647,11.424-21.361,20.263-34.506,27.263c-14.419,7.679-29.783,12.706-45.713,16.106c-15.32,3.27-30.829,5.008-46.473,5.562
		C143.695,236.159,137.819,236.249,134.777,236.323z M171.899,197.861c-0.785,8.606,1.364,16.97,1.002,25.465
		c3.786,0,7.459,0.186,11.106-0.039c7.345-0.452,14.4-2.376,21.341-4.726c3.964-1.342,7.916-2.716,11.957-4.104
		c-0.107-0.441-0.158-0.835-0.298-1.194c-1.013-2.601-1.947-5.238-3.091-7.78c-1.998-4.443-4.17-8.814-4.987-13.68
		c-0.256-1.521-0.406-3.059-0.579-4.391c-5.917,2.251-11.746,4.644-17.697,6.684C184.635,196.159,178.375,197.279,171.899,197.861z
		 M261.114,187.683c-2.477-1.546-3.646-3.748-4.304-6.236c-0.499-1.887-0.84-3.817-1.216-5.735
		c-0.362-1.849-0.681-3.706-1.019-5.562c-0.273,0.06-0.317,0.059-0.35,0.078c-11.075,6.66-23.009,11.2-35.497,14.368
		c-0.642,0.163-0.893,0.472-0.946,1.131c-0.31,3.79,0.325,7.403,1.942,10.84c2.129,4.522,5.289,8.57,6.116,13.712
		C239.152,205.066,249.619,195.758,261.114,187.683z M213.847,169.872c6.563-1.867,13.083-3.708,19.595-5.579
		c5.036-1.447,10.017-3.044,14.458-5.94c5.135-3.348,8.271-8.005,9.19-14.101c0.114-0.763,0.163-1.535,0.247-2.348
		c-5.131,0.33-9.942,1.316-14.653,2.731c-7.76,2.332-15.474,4.816-23.232,7.154c-2.778,0.837-5.629,1.431-8.521,2.155
		C210.778,159.562,213.402,164.648,213.847,169.872z M205.339,174.402c-0.402-2.778-0.734-5.473-1.196-8.145
		c-0.47-2.722-1.089-5.409-2.893-7.643c-0.419-0.52-0.794-0.686-1.516-0.517c-3.42,0.798-6.863,1.496-10.298,2.229
		c-8.158,1.74-16.314,3.488-24.476,5.207c-0.791,0.167-1.113,0.458-1.103,1.334c0.051,4.157,0.021,8.314,0.026,12.472
		c0,0.343,0.057,0.684,0.085,1.003c0.218,0.055,0.331,0.104,0.446,0.109c1.237,0.052,2.474,0.104,3.711,0.145
		C180.898,181.003,192.984,177.298,205.339,174.402z M133.905,203.951c0.073,7.663,3.363,14.741,2.986,22.43
		c9.276-0.354,18.416,0.936,27.303-0.876c-0.403-8.255-0.797-16.321-1.187-24.31c-4.631,0.783-9.454,1.671-14.301,2.398
		C143.845,204.324,138.948,204.488,133.905,203.951z M265.971,136.801c0,4.872,0,9.644,0,14.421c0.249,0,0.412,0.023,0.566-0.004
		c6.422-1.126,12.761-2.562,18.708-5.335c7.202-3.357,12.587-8.433,14.819-16.285c0.697-2.456,1.025-5.017,1.533-7.586
		c-0.504-0.056-0.659-0.089-0.814-0.086c-0.359,0.005-0.72,0.014-1.077,0.046c-4.963,0.448-9.597,1.947-13.961,4.333
		C279.183,129.892,273.307,134.764,265.971,136.801z M121.113,180.412c0.194-3.039,0.39-5.942,0.558-8.848
		c0.05-0.877,0.011-1.759,0.029-2.638c0.016-0.784-0.312-1.155-1.137-1.175c-1.077-0.025-2.152-0.144-3.228-0.236
		c-7.224-0.617-14.568-0.474-21.518-3.446c-1.299,4.476-1.358,9.234-3.733,13.433C101.735,180.137,111.436,180.844,121.113,180.412z
		 M104.759,205.85c0.93,2.304,1.712,4.473,2.667,6.562c1.874,4.095,4.193,7.993,5.329,12.41c0.073,0.283,0.579,0.6,0.92,0.649
		c2.608,0.38,5.219,0.769,7.842,1.015c2.348,0.22,4.707,0.276,6.992-0.562c0.678-0.248,0.958-0.604,0.828-1.323
		c-0.337-1.845-0.528-3.725-0.995-5.535c-1.182-4.585-3.186-8.734-7.154-11.584C116.185,203.889,110.721,204.198,104.759,205.85z
		 M131.839,167.853c0.356,4.342-2.29,7.653-2.93,11.668c9.158,2.053,18.323,0.308,27.451,0.838c0-4.95,0-9.682,0-14.646
		c-2.309,0.17-4.538,0.232-6.738,0.521c-3.518,0.461-7.003,1.202-10.528,1.573C136.773,168.05,134.405,167.853,131.839,167.853z
		 M266.751,180.161c1.355-0.917,2.796-1.73,4.046-2.772c1.949-1.626,4.028-3.201,5.593-5.164c3.387-4.251,6.049-8.994,8.397-13.899
		c0.339-0.707,0.576-1.462,0.915-2.337c-0.485,0.039-0.811,0.003-1.094,0.097c-2.756,0.913-5.584,1.663-8.235,2.818
		c-3.993,1.738-7.543,4.182-10.08,7.838C263.351,170.982,263.561,176.516,266.751,180.161z M84.104,178.001
		c0.067-0.148,0.135-0.296,0.202-0.444c-1.602-2.799-0.848-5.424,0.478-8.008c0.602-1.172,1.305-2.307,1.765-3.532
		c0.476-1.268,0.711-2.626,1.103-4.144c-3.922-0.065-6.837-1.831-9.787-3.521c-0.759-0.435-1.586-0.751-2.363-1.158
		c-0.599-0.313-1.136-0.235-1.435,0.335c-0.658,1.254-1.538,2.497-1.786,3.844c-0.929,5.062,1.115,9.832,1.573,14.893
		c2.795-0.54,5.16,0.453,7.569,1.322C82.258,177.888,83.207,177.872,84.104,178.001z M83.844,203.973
		c0.368,1.014,0.564,1.931,1.009,2.704c1.093,1.897,2.272,3.747,3.469,5.583c1.839,2.82,2.89,5.774,1.66,9.226
		c3.978,1.613,7.907,3.034,12.487,2.874c-0.622-1.662-1.083-3.188-1.75-4.617c-1.918-4.108-4.25-8.062-4.286-12.448
		c-2.396-0.812-4.581-1.521-6.741-2.296C87.886,204.351,86.092,203.721,83.844,203.973z M80.303,220.343
		c-0.337-1.219-0.589-2.18-0.869-3.133c-1.196-4.069-2.514-8.091-5.069-11.559c-1.427-1.938-3.148-3.545-5.458-4.552
		c-0.232,1.948,0.332,3.58,1.021,5.221c0.706,1.68,1.455,3.384,1.816,5.153c0.462,2.259-0.674,3.522-2.992,3.816
		c-0.809,0.103-1.62,0.195-2.787,0.336C70.383,218.843,75.293,219.306,80.303,220.343z M62.532,172.207
		c0.917-4.95,1.953-9.865,2.695-14.824c0.416-2.778-0.002-5.561-1.659-8.355c-1.055,2.01-2.089,3.793-2.949,5.658
		c-1.68,3.646-3.064,7.385-2.786,11.512C58.034,169.186,59.752,171.452,62.532,172.207z M61.36,210.986
		c-0.263-5.953-3.052-10.272-6.979-14.009C55.781,201.996,57.632,206.787,61.36,210.986z M55.724,141.194
		c-0.898,2.093-2.446,3.671-2.734,5.966C54.903,146.283,56.239,143.427,55.724,141.194z"/>
	<path fill-rule="evenodd" clip-rule="evenodd" d="M111.544,134.978c-2.106,1.223-3.414,3.574-6.013,3.851
		c-0.627,0.067-1.261,0.07-2.102,0.114c0.47-2.405-0.938-4.074-2.139-6.134c-1.675,0.77-3.437,1.479-5.101,2.37
		c-1.97,1.056-3.825,2.324-5.783,3.402c-2.813,1.549-5.845,2.34-9.074,2.299c-0.199-0.002-0.399-0.008-0.596-0.034
		c-0.063-0.008-0.117-0.085-0.255-0.194c0.173-0.155,0.308-0.347,0.492-0.43c9.592-4.385,18.097-10.47,26.443-16.82
		c6.393-4.864,12.87-9.62,19.281-14.461c0.366-0.276,0.667-0.89,0.672-1.351c0.053-3.919,0.001-7.839,0.054-11.758
		c0.011-0.846-0.298-1.305-0.974-1.722c-3.915-2.417-8.236-3.736-12.73-4.317c-6.217-0.803-12.468-1.355-18.711-1.94
		c-6.406-0.599-12.825-1.093-18.992-3.117c-1.136-0.373-2.223-0.894-3.354-1.286c-1.113-0.385-1.327-0.914-0.801-2.046
		c2.533-5.448,6.825-8.85,12.357-10.834c4.934-1.77,10.062-2.213,15.245-1.906c10.094,0.598,19.582,3.286,28.264,8.567
		c2.887,1.756,5.475,3.872,7.622,6.515c0.239,0.294,0.889,0.446,1.3,0.376c2.123-0.36,4.217-0.898,6.345-1.208
		c1.778-0.259,3.528,0.102,5.052,1.087c0.396,0.256,0.764,0.939,0.737,1.402c-0.124,2.079-1.102,3.804-2.879,4.856
		c-1.567,0.928-3.295,1.589-4.974,2.32c-1.352,0.588-2.731,1.115-4.106,1.649c-0.735,0.286-0.966,0.771-0.961,1.569
		c0.036,5.599-0.003,11.199,0.042,16.799c0.007,0.903-0.244,1.518-0.985,2c-2.744,1.786-5.455,3.623-8.218,5.377
		c-2.878,1.828-5.668,3.736-7.876,6.396c-0.729,0.878-0.826,1.61-0.349,2.682c3.311,7.433,8.66,12.965,15.654,16.977
		c0.425,0.243,1.142,0.362,1.556,0.174c1.551-0.706,3.072-1.5,4.531-2.381c1.796-1.085,3.588-1.689,5.672-0.842
		c0.836,0.34,1.151,0.735,0.744,1.595c-0.854,1.799-1.502,3.724-2.557,5.394c-2.745,4.348-6.758,5.72-11.487,3.688
		c-2.643-1.137-5.165-2.719-7.459-4.47c-4.922-3.758-8.884-8.499-12.79-13.268C112.09,135.613,111.833,135.318,111.544,134.978z
		 M101.619,77.674c-5.101-1.422-10.067-0.814-14.958,0.941C91.762,80.035,96.728,79.413,101.619,77.674z"/>
	<path fill-rule="evenodd" clip-rule="evenodd" d="M224.393,59.291c9.542,0.176,18.723,1.577,27.238,5.942
		c6.784,3.477,12.134,8.384,15.073,15.596c0.241,0.591,0.451,1.195,0.647,1.803c0.708,2.199,0.667,2.281-1.092,3.722
		c-2.935,2.403-6.345,2.748-9.868,2.066c-2.854-0.552-5.67-1.348-8.462-2.173c-6.636-1.96-13.385-2.102-20.192-1.398
		c-11.986,1.24-23.127,5.37-34.105,10.041c-2.057,0.875-4.092,1.801-6.158,2.653c-0.396,0.163-0.983,0.268-1.326,0.093
		c-3.149-1.604-6.135-3.468-8.495-6.151c-4.385-4.985-4.236-10.485,0.416-15.714c3.743-4.207,8.476-7.009,13.532-9.302
		C202.048,61.732,213.045,59.483,224.393,59.291z M215.271,78.371c-0.586-2.822-0.983-5.473-1.714-8.029
		c-0.653-2.286-1.457-2.412-3.629-1.597c-3.954,1.483-7.972,2.797-11.956,4.203c-3.48,1.228-6.871,2.635-9.495,5.37
		c-2.4,2.502-3.443,5.535-3.531,9.008c4.332,0.39,8.215-0.622,11.888-2.55c1.836-0.964,3.633-2.002,5.435-3.029
		C206.23,79.486,210.463,78.234,215.271,78.371z M256.979,79.728c-0.554-3.389-5.283-5.664-9.986-4.743
		c-0.243,2.075,0.718,3.249,3.219,3.708C252.463,79.104,254.736,79.389,256.979,79.728z"/>
	<path fill-rule="evenodd" clip-rule="evenodd" d="M225.469,88.171c1.793,0.625,3.534,0.939,4.955,1.789
		c3.009,1.795,5.91,3.79,8.746,5.851c3.377,2.453,6.745,4.889,10.867,5.934c6.253,1.585,12.322,0.792,18.138-1.799
		c3.202-1.427,6.331-3.063,9.355-4.84c7.695-4.518,15.886-7.298,24.866-7.361c11.099-0.078,21.105,2.996,29.173,10.919
		c9.971,9.794,11.935,23.362,5.138,35.603c-1.751,3.152-4.15,5.945-6.267,8.892c-0.198,0.275-0.505,0.472-0.877,0.81
		c-1.078-2.257-1.749-4.496-1.341-6.816c0.426-2.42,1.227-4.774,1.861-7.157c0.788-2.96,2.003-5.882,2.277-8.89
		c0.783-8.561-2.557-15.493-9.456-20.546c-6.521-4.776-13.934-5.94-21.78-4.523c-1.3,0.235-2.538,0.931-3.742,1.538
		c-0.957,0.483-1.888,1.073-2.711,1.76c-6.543,5.46-14.337,7.902-22.531,9.347c-7.923,1.396-15.885,1.778-23.866,0.513
		c-5.868-0.93-11.449-2.639-16.164-6.459c-4.293-3.479-6.421-8.054-6.706-13.53C225.394,89.011,225.427,88.815,225.469,88.171z"/>
	<path fill-rule="evenodd" clip-rule="evenodd" d="M41.612,238.438c1.16,0.567,1.374,1.59,1.365,2.634
		c-0.017,1.917-0.091,3.836-0.235,5.747c-0.087,1.162,0.33,1.906,1.254,2.62c7.651,5.913,16.332,9.641,25.588,12.151
		c9.415,2.555,19.033,3.766,28.756,4.199c9.152,0.408,18.294,0.194,27.43-0.509c14.162-1.091,28.171-3.22,42.082-6.055
		c27.457-5.596,54.064-13.699,79.229-26.259c10.89-5.435,21.927-10.595,33.43-14.655c2.67-0.942,5.387-1.753,8.085-2.615
		c0.359-0.114,0.737-0.169,1.106-0.252c0.047,0.094,0.095,0.188,0.142,0.281c-0.357,0.272-0.701,0.564-1.074,0.814
		c-11.591,7.764-23.991,14.017-36.777,19.519c-25.58,11.007-52.104,18.991-79.358,24.615c-12.372,2.552-24.823,4.655-37.393,5.859
		c-9.262,0.888-18.564,1.41-27.859,1.874c-9.229,0.46-18.465,0.129-27.674-0.604c-8.569-0.683-16.95-2.294-24.767-6.056
		c-5.173-2.488-9.665-5.805-12.24-11.172c-1.778-3.705-2.01-7.602-1.372-11.594C41.357,238.807,41.5,238.648,41.612,238.438z"/>
	<path fill-rule="evenodd" clip-rule="evenodd" d="M279.625,57.888c-2.072-1.549-4.129-3.117-6.217-4.643
		c-13.046-9.532-26.992-17.357-42.421-22.374c-13.821-4.494-28.003-6.687-42.507-5.782c-7.394,0.461-14.754,1.716-22.085,2.892
		c-10.296,1.653-20.563,3.467-31.009,3.914c-9.305,0.398-18.517-0.498-27.723-1.75c-5.497-0.747-11.029-1.368-16.565-1.644
		c-6.034-0.3-11.874,0.739-17.064,4.164c-0.121,0.08-0.279,0.102-0.708,0.251c0.246-0.515,0.355-0.822,0.526-1.09
		c2.629-4.114,6.632-5.821,11.269-6.387c5.708-0.696,11.323,0.203,16.933,1.068c7.063,1.091,14.07,2.753,21.247,2.794
		c5.706,0.033,11.455-0.025,17.114-0.672c12.143-1.387,24.235-3.213,36.356-4.795c10.36-1.353,20.76-2.29,31.204-1.248
		c25.104,2.507,47.463,11.429,66.137,28.75c1.842,1.708,3.468,3.65,5.184,5.493c0.226,0.243,0.39,0.543,0.582,0.816
		C279.793,57.728,279.709,57.808,279.625,57.888z"/>
	<path fill-rule="evenodd" clip-rule="evenodd" d="M68.681,117.862c-0.787-2.041-1.474-3.908-2.232-5.747
		c-0.255-0.62-0.656-1.188-1.047-1.741c-1.733-2.45-3.877-3.817-7.115-3.763c-5.234,0.088-10.321,0.964-15.423,1.939
		c-2.742,0.524-5.52,0.86-8.283,1.266c-0.34,0.05-0.694,0.007-1.194,0.007c0.824-3.581,2.505-6.466,5.359-8.61
		c3.654-2.745,7.911-3.616,12.332-3.502c10.429,0.269,19.874,3.583,28.357,9.644c0.39,0.278,0.756,0.59,1.118,0.905
		c1.413,1.233,1.438,1.276,3.04,0.218c1.097-0.724,2.105-1.584,3.157-2.377c1.869-1.408,3.967-2.049,6.292-1.712
		c0.381,0.055,0.899,0.494,1.014,0.861c1.486,4.74-0.24,8.482-4.796,10.441c-3.773,1.623-7.787,2.031-11.83,2.152
		C74.483,117.933,71.53,117.862,68.681,117.862z"/>
	<path fill-rule="evenodd" clip-rule="evenodd" d="M203.014,128.237c0.071,3.772-0.217,7.502-1.598,11.063
		c-2.125,5.485-6.515,7.579-12.122,5.819c-0.592-0.187-0.901-0.445-0.969-1.141c-0.265-2.734,0.758-4.914,2.725-6.718
		c1-0.918,2.013-1.823,3.049-2.7c2.871-2.432,1.509-7.312-2.028-8.212c-1.84-0.468-3.777-0.547-5.666-0.833
		c-2.558-0.386-5.127-0.721-7.661-1.235c-1.493-0.303-1.496-0.497-1.067-2.001c0.926-3.249,3.59-5.394,7.26-5.619
		c6.169-0.379,11.625,1.574,16.486,5.314c1.074,0.826,1.717,1.834,1.606,3.268C202.952,126.235,203.014,127.239,203.014,128.237z"/>
	<path fill-rule="evenodd" clip-rule="evenodd" d="M67.687,81.87c-1.222-0.073-2.443-0.189-3.667-0.213
		c-10.636-0.203-20.969,1.247-30.645,5.936c-7.017,3.4-12.745,8.211-16.08,15.466c-2.284,4.97-2.831,10.237-2.262,15.588
		c0.31,2.913,0.958,5.825,1.787,8.639c1.01,3.425,3.6,5.474,6.893,6.648c2.104,0.75,4.246,1.396,6.347,2.156
		c3.313,1.198,6.017,3.123,7.43,6.506c0.108,0.258,0.228,0.511,0.318,0.774c0.036,0.103,0.006,0.228,0.006,0.393
		c-0.176,0.015-0.337,0.068-0.478,0.034c-6.48-1.577-12.569-3.956-17.521-8.634c-4.911-4.642-7.169-10.485-7.56-17.103
		c-0.372-6.297,0.328-12.462,2.962-18.276c3.836-8.463,10.471-13.841,19.049-16.984c7.684-2.815,15.654-3.399,23.739-2.751
		c2.782,0.223,5.544,0.705,8.313,1.084c0.484,0.066,0.958,0.21,1.436,0.318C67.733,81.591,67.71,81.73,67.687,81.87z"/>
	<path fill-rule="evenodd" clip-rule="evenodd" d="M152.522,253.473c2.371-0.158,4.744-0.3,7.113-0.478
		c12.054-0.903,23.753-3.483,35.179-7.395c12.417-4.251,24.185-9.992,36.013-15.6c11.366-5.389,22.836-10.523,34.944-14.069
		c0.422-0.124,0.834-0.304,1.263-0.364c0.271-0.039,0.698,0.004,0.815,0.175c0.139,0.203,0.146,0.705-0.009,0.863
		c-0.461,0.47-0.971,1.001-1.565,1.211c-1.916,0.676-3.925,1.104-5.814,1.839c-3.377,1.313-6.777,2.612-10.019,4.217
		c-9.979,4.941-19.836,10.129-29.836,15.025c-11.608,5.684-23.617,10.317-36.323,12.962c-6.821,1.42-13.704,2.327-20.681,2.326
		c-3.352-0.001-6.703-0.152-10.054-0.249c-0.353-0.011-0.703-0.113-1.054-0.174C152.504,253.666,152.513,253.569,152.522,253.473z"
		/>
	<path fill-rule="evenodd" clip-rule="evenodd" d="M183.935,142.127c-3.599-2.687-7.39-2.608-11.212-2.525
		c-4.265,0.093-8.532,0.088-12.797,0.054c-0.86-0.007-1.715-0.349-2.577-0.51c-0.812-0.151-1.001-0.616-0.837-1.378
		c0.659-3.049,2.588-4.956,5.404-6.072c3.462-1.373,7.104-1.637,10.731-1.283c3.684,0.359,7.326,1.132,10.992,1.686
		c1.002,0.151,1.269,0.643,1.225,1.617c-0.084,1.872,0.052,3.755-0.069,5.622C184.738,140.197,184.288,141.03,183.935,142.127z"/>
	<path fill-rule="evenodd" clip-rule="evenodd" d="M266.649,60.81c-0.209-0.188-0.447-0.353-0.621-0.569
		c-7.111-8.834-16.482-14.235-27.07-17.748c-9.54-3.165-19.392-4.78-29.396-5.244c-7.654-0.354-15.33-0.238-22.997-0.332
		c-0.08-0.001-0.173,0.027-0.238-0.004c-0.49-0.238-0.975-0.487-1.462-0.732c0.477-0.261,0.943-0.729,1.43-0.75
		c6.862-0.313,13.73-0.836,20.591-0.772c12.234,0.113,24.312,1.543,35.868,5.907c7.979,3.013,15.096,7.325,20.402,14.172
		c1.339,1.727,2.391,3.676,3.566,5.528c0.072,0.113,0.075,0.271,0.11,0.407C266.772,60.718,266.711,60.764,266.649,60.81z"/>
	<path fill-rule="evenodd" clip-rule="evenodd" d="M134.769,45.865c-0.329-0.082-0.662-0.151-0.986-0.248
		c-11.139-3.317-22.502-4.714-34.102-3.807c-6.579,0.515-12.972,1.846-18.775,5.207c-4.826,2.795-8.271,6.727-9.871,12.152
		c-0.044,0.151-0.104,0.301-0.178,0.439c-0.033,0.062-0.12,0.094-0.299,0.224c-0.617-1.7-0.493-3.367-0.104-5.015
		c0.985-4.177,3.834-6.928,7.265-9.15c4.907-3.178,10.398-4.861,16.082-5.937c10.487-1.984,20.986-1.824,31.46,0.105
		c2.724,0.501,5.363,1.372,7.528,3.201c0.848,0.717,1.503,1.662,2.246,2.503C134.947,45.648,134.858,45.756,134.769,45.865z"/>
	<path fill-rule="evenodd" clip-rule="evenodd" d="M60.711,235.432c0.737,0.864,1.45,1.752,2.216,2.591
		c4.993,5.467,11.309,8.773,18.217,11.092c7.502,2.519,15.264,3.747,23.103,4.562c2.623,0.272,5.253,0.468,7.88,0.705
		c0.217,0.02,0.429,0.091,0.66,0.408c-0.511,0.064-1.02,0.156-1.533,0.19c-8.952,0.59-17.892,0.702-26.776-0.822
		c-5.269-0.904-10.356-2.366-14.917-5.275c-4.573-2.917-7.68-6.921-8.941-12.26c-0.081-0.342-0.122-0.692-0.181-1.038
		C60.529,235.533,60.62,235.482,60.711,235.432z"/>
	<path fill-rule="evenodd" clip-rule="evenodd" d="M328.541,152.554c0.268-0.097,0.527-0.231,0.803-0.286
		c8.606-1.716,14.081-7.104,17.419-14.937c2.428-5.697,3.372-11.716,3.676-17.86c0.299-6.046-0.066-12.057-0.937-18.042
		c-0.039-0.27-0.005-0.55,0.202-0.941c0.208,0.368,0.463,0.717,0.617,1.107c2.092,5.303,2.91,10.84,2.278,16.466
		c-0.717,6.383-1.838,12.72-2.781,19.077c-0.288,1.937-0.549,3.877-0.87,5.807c-0.064,0.387-0.245,0.879-0.539,1.084
		c-2.684,1.878-5.38,3.741-8.122,5.534c-3.322,2.174-6.987,3.295-10.972,3.312c-0.249,0.001-0.497-0.059-0.746-0.091
		C328.56,152.708,328.551,152.631,328.541,152.554z"/>
	<path fill-rule="evenodd" clip-rule="evenodd" d="M163.737,242.83c-2.258,0.164-4.517,0.337-6.776,0.491
		c-8.166,0.557-16.326,1.219-24.5,1.624c-6.425,0.319-12.855,0.146-19.248-0.784c-1.121-0.163-2.296,0.082-3.438,0.01
		c-0.503-0.031-0.985-0.388-1.477-0.596c0.552-0.391,1.072-1.048,1.662-1.117c1.216-0.145,2.468,0.071,3.705,0.059
		c7.427-0.081,14.854-0.146,22.28-0.291c8.982-0.176,17.964-0.646,26.941,0.135c0.29,0.025,0.576,0.099,0.864,0.149
		C163.747,242.616,163.742,242.724,163.737,242.83z"/>
	<path fill-rule="evenodd" clip-rule="evenodd" d="M349.615,99.827c-0.148-0.181-0.317-0.332-0.421-0.52
		c-4.61-8.389-11.992-12.917-21.049-15.095c-6.864-1.652-13.831-1.877-20.843-1.434c-0.567,0.036-1.139,0.005-1.709,0.005
		c-0.016-0.109-0.031-0.219-0.047-0.329c0.737-0.165,1.469-0.362,2.212-0.488c8.885-1.513,17.678-1.296,26.286,1.584
		c5.136,1.719,9.679,4.374,12.893,8.906c1.404,1.98,2.345,4.167,2.82,6.551c0.038,0.193,0.062,0.391,0.068,0.587
		C349.827,99.647,349.732,99.702,349.615,99.827z"/>
	<path fill-rule="evenodd" clip-rule="evenodd" d="M40.028,90.805c-1.035,1.123-2.007,2.312-3.119,3.352
		c-1.865,1.747-3.889,3.327-5.722,5.104c-5.185,5.024-6.323,11.141-4.652,17.964c0.121,0.492,0.226,0.987,0.338,1.48
		c-0.11,0.072-0.219,0.145-0.329,0.217c-0.481-0.612-1.056-1.173-1.428-1.846c-1.164-2.103-1.04-4.404-0.774-6.673
		c0.33-2.814,0.839-5.607,1.166-8.421c0.136-1.177-0.039-2.388,0.011-3.579c0.017-0.399,0.181-1.003,0.465-1.149
		c4.401-2.263,8.832-4.466,13.259-6.678c0.131-0.065,0.292-0.071,0.438-0.104C39.797,90.582,39.913,90.693,40.028,90.805z"/>
	<path fill-rule="evenodd" clip-rule="evenodd" d="M235.874,128.675c-1.78-0.521-3.417-1.327-5.095-1.426
		c-3.852-0.229-7.725-0.07-11.587-0.151c-3.221-0.068-6.49,0.055-9.646-0.464c-4.106-0.676-5.995-4.954-4.218-8.737
		c0.251-0.535,1.51-0.779,2.088-0.242c0.266,0.248,0.235,0.938,0.151,1.393c-0.056,0.3-0.398,0.621-0.695,0.79
		c-1.236,0.704-0.792,1.522-0.219,2.366c1.65,2.426,4.201,3.048,6.836,2.986c4.062-0.095,8.117-0.527,12.177-0.783
		c2.324-0.146,4.637-0.069,6.83,0.847C234.087,125.919,235.26,126.999,235.874,128.675z"/>
	<path fill-rule="evenodd" clip-rule="evenodd" d="M271.234,77.621c1.621-0.86,3.129-0.76,4.587-0.432
		c2.799,0.63,5.55,1.481,8.359,2.055c1.499,0.306,3.078,0.225,4.702,0.323c-0.015,1.733-0.713,3.106-2.209,3.954
		c-3.433,1.942-7.009,1.883-10.621,0.551c-0.25-0.092-0.596-0.645-0.537-0.728c0.275-0.389,0.658-0.944,1.037-0.971
		c1.104-0.079,2.223,0.083,3.337,0.119c0.825,0.026,1.736,0.359,2.496-0.633C278.772,80.214,274.521,80.442,271.234,77.621z"/>
	<path fill-rule="evenodd" clip-rule="evenodd" d="M123.337,51.718c1.735-1.271,3.706-1.32,5.079,0.033
		c0.94,0.926,1.811,2.076,2.287,3.293c1.855,4.739,2.11,9.632,0.773,14.55c-0.315,1.159-1.023,2.211-1.55,3.312
		c-0.168-0.056-0.336-0.112-0.504-0.168c0.024-0.528,0.076-1.057,0.067-1.585c-0.05-3.187,0.1-6.395-0.226-9.554
		C128.842,57.517,127.498,53.791,123.337,51.718z"/>
	<path fill-rule="evenodd" clip-rule="evenodd" d="M180.883,59.988c-2.102-2.345-2.787-8.864-0.104-13.775
		c2.23-4.083,6.849-7.182,10.241-6.585c-3.113,2.619-5.844,5.368-7.63,8.9C181.613,52.04,180.92,55.8,180.883,59.988z"/>
	<path fill-rule="evenodd" clip-rule="evenodd" d="M36.853,129.596c-1.721,1.05-3.447,1.138-5.227,0.545
		c-3.862-1.286-7.419-6.588-7.056-10.871C28.782,122.728,31.76,127.41,36.853,129.596z"/>
	<path fill-rule="evenodd" clip-rule="evenodd" d="M127.432,254.472c0.619-0.263,1.219-0.686,1.859-0.758
		c2.016-0.229,4.046-0.43,6.072-0.448c2.989-0.028,5.979,0.107,8.969,0.179c0.139,0.004,0.277,0.054,0.621,0.125
		c-1.104,1.006-2.317,1.265-3.505,1.287c-3.028,0.059-6.059-0.028-9.089-0.048c-1.609-0.011-3.218-0.002-4.827-0.002
		C127.498,254.694,127.465,254.583,127.432,254.472z"/>
	<path fill-rule="evenodd" clip-rule="evenodd" d="M277.883,88.618c-0.745,1.385-1.615,1.824-2.986,1.255
		c-1.09-0.452-2.096-1.138-3.072-1.815c-0.603-0.418-0.191-1.487,0.71-1.596c0.706-0.085,1.519,0.064,2.174,0.356
		C275.787,87.299,276.777,87.978,277.883,88.618z"/>
	<path fill-rule="evenodd" clip-rule="evenodd" fill="#FFFFFF" d="M171.899,197.861c6.476-0.582,12.735-1.702,18.755-3.765
		c5.951-2.04,11.78-4.433,17.697-6.684c0.173,1.332,0.323,2.87,0.579,4.391c0.817,4.865,2.989,9.236,4.987,13.68
		c1.144,2.542,2.078,5.18,3.091,7.78c0.14,0.359,0.19,0.753,0.298,1.194c-4.041,1.388-7.993,2.762-11.957,4.104
		c-6.941,2.35-13.996,4.273-21.341,4.726c-3.647,0.225-7.32,0.039-11.106,0.039C173.264,214.831,171.115,206.468,171.899,197.861z"
		/>
	<path fill-rule="evenodd" clip-rule="evenodd" fill="#FFFFFF" d="M261.114,187.683c-11.495,8.075-21.962,17.384-35.272,22.596
		c-0.827-5.142-3.987-9.189-6.116-13.712c-1.617-3.437-2.252-7.05-1.942-10.84c0.054-0.659,0.305-0.968,0.946-1.131
		c12.488-3.168,24.422-7.708,35.497-14.368c0.032-0.02,0.076-0.019,0.35-0.078c0.338,1.855,0.656,3.713,1.019,5.562
		c0.376,1.918,0.717,3.849,1.216,5.735C257.468,183.935,258.638,186.137,261.114,187.683z"/>
	<path fill-rule="evenodd" clip-rule="evenodd" fill="#FFFFFF" d="M213.847,169.872c-0.444-5.224-3.068-10.31-2.917-15.928
		c2.893-0.725,5.743-1.318,8.521-2.155c7.759-2.338,15.473-4.822,23.232-7.154c4.711-1.416,9.522-2.402,14.653-2.731
		c-0.084,0.813-0.133,1.585-0.247,2.348c-0.919,6.096-4.056,10.753-9.19,14.101c-4.441,2.896-9.422,4.493-14.458,5.94
		C226.93,166.164,220.41,168.005,213.847,169.872z"/>
	<path fill-rule="evenodd" clip-rule="evenodd" fill="#FFFFFF" d="M205.339,174.402c-12.354,2.896-24.44,6.601-37.213,6.195
		c-1.237-0.04-2.474-0.093-3.711-0.145c-0.115-0.006-0.228-0.055-0.446-0.109c-0.028-0.319-0.084-0.66-0.085-1.003
		c-0.006-4.157,0.024-8.314-0.026-12.472c-0.011-0.876,0.312-1.167,1.103-1.334c8.162-1.719,16.318-3.467,24.476-5.207
		c3.435-0.733,6.878-1.432,10.298-2.229c0.722-0.169,1.097-0.003,1.516,0.517c1.804,2.233,2.423,4.921,2.893,7.643
		C204.604,168.93,204.937,171.624,205.339,174.402z"/>
	<path fill-rule="evenodd" clip-rule="evenodd" fill="#FFFFFF" d="M133.905,203.951c5.043,0.537,9.94,0.373,14.801-0.357
		c4.847-0.728,9.669-1.615,14.301-2.398c0.39,7.988,0.784,16.055,1.187,24.31c-8.887,1.812-18.026,0.522-27.303,0.876
		C137.268,218.692,133.978,211.614,133.905,203.951z"/>
	<path fill-rule="evenodd" clip-rule="evenodd" fill="#FFFFFF" d="M265.971,136.801c7.336-2.037,13.212-6.909,19.774-10.497
		c4.364-2.386,8.998-3.885,13.961-4.333c0.357-0.032,0.718-0.041,1.077-0.046c0.155-0.002,0.311,0.031,0.814,0.086
		c-0.508,2.57-0.836,5.131-1.533,7.586c-2.232,7.852-7.617,12.927-14.819,16.285c-5.947,2.773-12.286,4.209-18.708,5.335
		c-0.154,0.027-0.317,0.004-0.566,0.004C265.971,146.444,265.971,141.673,265.971,136.801z"/>
	<path fill-rule="evenodd" clip-rule="evenodd" fill="#FFFFFF" d="M121.113,180.412c-9.678,0.432-19.378-0.275-29.028-2.91
		c2.375-4.198,2.434-8.957,3.733-13.433c6.95,2.973,14.293,2.829,21.518,3.446c1.075,0.093,2.15,0.211,3.228,0.236
		c0.825,0.02,1.153,0.391,1.137,1.175c-0.018,0.879,0.021,1.761-0.029,2.638C121.503,174.47,121.307,177.373,121.113,180.412z"/>
	<path fill-rule="evenodd" clip-rule="evenodd" fill="#FFFFFF" d="M104.759,205.85c5.961-1.651,11.426-1.961,16.429,1.632
		c3.969,2.85,5.972,6.999,7.154,11.584c0.466,1.811,0.658,3.69,0.995,5.535c0.131,0.719-0.15,1.075-0.828,1.323
		c-2.285,0.838-4.645,0.781-6.992,0.562c-2.623-0.246-5.234-0.635-7.842-1.015c-0.341-0.05-0.847-0.366-0.92-0.649
		c-1.136-4.417-3.455-8.315-5.329-12.41C106.471,210.322,105.689,208.153,104.759,205.85z"/>
	<path fill-rule="evenodd" clip-rule="evenodd" fill="#FFFFFF" d="M131.839,167.853c2.565,0,4.934,0.197,7.256-0.046
		c3.525-0.371,7.01-1.112,10.528-1.573c2.2-0.288,4.429-0.351,6.738-0.521c0,4.964,0,9.695,0,14.646
		c-9.128-0.53-18.293,1.215-27.451-0.838C129.549,175.506,132.195,172.194,131.839,167.853z"/>
	<path fill-rule="evenodd" clip-rule="evenodd" fill="#FFFFFF" d="M266.751,180.161c-3.19-3.646-3.4-9.179-0.458-13.42
		c2.537-3.656,6.087-6.1,10.08-7.838c2.651-1.155,5.479-1.905,8.235-2.818c0.283-0.094,0.608-0.058,1.094-0.097
		c-0.339,0.875-0.576,1.63-0.915,2.337c-2.349,4.905-5.011,9.648-8.397,13.899c-1.564,1.963-3.644,3.538-5.593,5.164
		C269.547,178.431,268.106,179.244,266.751,180.161z"/>
	<path fill-rule="evenodd" clip-rule="evenodd" fill="#FFFFFF" d="M84.104,178.001c-0.897-0.129-1.846-0.113-2.68-0.414
		c-2.409-0.869-4.773-1.862-7.569-1.322c-0.458-5.061-2.502-9.831-1.573-14.893c0.248-1.347,1.127-2.59,1.786-3.844
		c0.299-0.57,0.836-0.648,1.435-0.335c0.777,0.407,1.604,0.724,2.363,1.158c2.95,1.69,5.864,3.456,9.787,3.521
		c-0.392,1.518-0.627,2.876-1.103,4.144c-0.459,1.226-1.163,2.36-1.765,3.532c-1.326,2.584-2.08,5.209-0.478,8.008
		C84.239,177.705,84.171,177.853,84.104,178.001z"/>
	<path fill-rule="evenodd" clip-rule="evenodd" fill="#FFFFFF" d="M83.844,203.973c2.249-0.252,4.042,0.378,5.847,1.025
		c2.161,0.774,4.345,1.483,6.741,2.296c0.037,4.386,2.368,8.34,4.286,12.448c0.667,1.43,1.128,2.955,1.75,4.617
		c-4.58,0.16-8.509-1.261-12.487-2.874c1.23-3.451,0.179-6.405-1.66-9.226c-1.196-1.836-2.376-3.686-3.469-5.583
		C84.408,205.903,84.212,204.986,83.844,203.973z"/>
	<path fill-rule="evenodd" clip-rule="evenodd" fill="#FFFFFF" d="M80.303,220.343c-5.01-1.037-9.92-1.5-14.337-4.717
		c1.167-0.141,1.978-0.233,2.787-0.336c2.318-0.294,3.454-1.558,2.992-3.816c-0.362-1.77-1.11-3.474-1.816-5.153
		c-0.69-1.641-1.254-3.272-1.021-5.221c2.31,1.007,4.031,2.613,5.458,4.552c2.555,3.468,3.873,7.489,5.069,11.559
		C79.713,218.163,79.966,219.124,80.303,220.343z"/>
	<path fill-rule="evenodd" clip-rule="evenodd" fill="#FFFFFF" d="M62.532,172.207c-2.779-0.755-4.498-3.021-4.699-6.01
		c-0.278-4.127,1.106-7.866,2.786-11.512c0.859-1.865,1.894-3.648,2.949-5.658c1.656,2.795,2.074,5.577,1.659,8.355
		C64.484,162.342,63.448,167.257,62.532,172.207z"/>
	<path fill-rule="evenodd" clip-rule="evenodd" fill="#FFFFFF" d="M61.36,210.986c-3.729-4.199-5.58-8.99-6.979-14.009
		C58.308,200.714,61.097,205.033,61.36,210.986z"/>
	<path fill-rule="evenodd" clip-rule="evenodd" fill="#FFFFFF" d="M55.724,141.194c0.515,2.232-0.821,5.089-2.734,5.966
		C53.278,144.865,54.826,143.288,55.724,141.194z"/>
	<path fill-rule="evenodd" clip-rule="evenodd" fill="#FFFFFF" d="M101.619,77.674c-4.892,1.739-9.857,2.361-14.958,0.941
		C91.552,76.86,96.519,76.252,101.619,77.674z"/>
	<path fill-rule="evenodd" clip-rule="evenodd" fill="#FFFFFF" d="M215.271,78.371c-4.809-0.137-9.041,1.115-13.003,3.374
		c-1.802,1.027-3.599,2.065-5.435,3.029c-3.673,1.928-7.556,2.94-11.888,2.55c0.088-3.473,1.131-6.506,3.531-9.008
		c2.624-2.735,6.015-4.142,9.495-5.37c3.984-1.405,8.002-2.719,11.956-4.203c2.172-0.815,2.976-0.689,3.629,1.597
		C214.288,72.897,214.686,75.548,215.271,78.371z"/>
	<path fill-rule="evenodd" clip-rule="evenodd" fill="#FFFFFF" d="M256.979,79.728c-2.243-0.338-4.517-0.623-6.768-1.036
		c-2.501-0.459-3.462-1.632-3.219-3.708C251.696,74.063,256.426,76.338,256.979,79.728z"/>
</g>
</svg>
